HIERARCHY
ROOT SpineBase
{
  OFFSET 0.000000 0.000000 0.000000
  CHANNELS 6 Xposition Yposition Zposition Zrotation Xrotation Yrotation
  JOINT SpineMid
  {
    OFFSET 0.000000 33.001530 0.000000
    CHANNELS 3 Zrotation Xrotation Yrotation
    JOINT SpineShoulder
    {
      OFFSET -0.080763 24.284288 -0.818517
      CHANNELS 3 Zrotation Xrotation Yrotation
      JOINT Neck
      {
        OFFSET 0.001176 7.975829 -0.593450
        CHANNELS 3 Zrotation Xrotation Yrotation
        JOINT Head
        {
          OFFSET -2.392901 11.680089 7.149267
          CHANNELS 3 Zrotation Xrotation Yrotation
          End Site
          {
            OFFSET 0 0 0
          }
        }
      }
      JOINT ShoulderLeft
      {
        OFFSET -9.276507 0.978795 -19.456545
        CHANNELS 3 Zrotation Xrotation Yrotation
        JOINT ElbowLeft
        {
          OFFSET 11.963516 -17.424194 16.118715
          CHANNELS 3 Zrotation Xrotation Yrotation
          JOINT WristLeft
          {
            OFFSET 6.367649 -20.703740 15.929417
            CHANNELS 3 Zrotation Xrotation Yrotation
            JOINT HandLeft
            {
              OFFSET 2.687736 -11.356110 3.730446
              CHANNELS 3 Zrotation Xrotation Yrotation
              JOINT HandTipLeft
              {
                OFFSET 0.845855 0.810942 -0.242687
                CHANNELS 3 Zrotation Xrotation Yrotation
                End Site
                {
                  OFFSET 0 0 0
                }
              }
              JOINT ThumbLeft
              {
                OFFSET -0.330496 0.468240 -2.566227
                CHANNELS 3 Zrotation Xrotation Yrotation
                End Site
                {
                  OFFSET 0 0 0
                }
              }
            }
          }
        }
      }
      JOINT ShoulderRight
      {
        OFFSET -1.965179 -5.391421 -12.707354
        CHANNELS 3 Zrotation Xrotation Yrotation
        JOINT ElbowRight
        {
          OFFSET -3.451253 -26.887631 -8.955748
          CHANNELS 3 Zrotation Xrotation Yrotation
          JOINT WristRight
          {
            OFFSET -8.501315 -21.295974 -4.395707
            CHANNELS 3 Zrotation Xrotation Yrotation
            JOINT HandRight
            {
              OFFSET -1.141103 -7.507230 1.813628
              CHANNELS 3 Zrotation Xrotation Yrotation
              JOINT HandTipRight
              {
                OFFSET -2.571532 -5.884761 1.010213
                CHANNELS 3 Zrotation Xrotation Yrotation
                End Site
                {
                  OFFSET 0 0 0
                }
              }
              JOINT ThumbRight
              {
                OFFSET 2.214217 0.780032 2.190348
                CHANNELS 3 Zrotation Xrotation Yrotation
                End Site
                {
                  OFFSET 0 0 0
                }
              }
            }
          }
        }
      }
    }
  }
  JOINT HipLeft
  {
    OFFSET -4.301181 1.133153 0.575613
    CHANNELS 3 Zrotation Xrotation Yrotation
    JOINT KneeLeft
    {
      OFFSET 1.961510 -44.878116 -1.877903
      CHANNELS 3 Zrotation Xrotation Yrotation
      JOINT AnkleLeft
      {
        OFFSET -3.414925 -34.913218 -3.419292
        CHANNELS 3 Zrotation Xrotation Yrotation
        JOINT FootLeft
        {
          OFFSET 0.490764 -2.579335 -12.055865
          CHANNELS 3 Zrotation Xrotation Yrotation
          End Site
          {
            OFFSET 0 0 0
          }
        }
      }
    }
  }
  JOINT HipRight
  {
    OFFSET 3.550055 0.417777 -8.637820
    CHANNELS 3 Zrotation Xrotation Yrotation
    JOINT KneeRight
    {
      OFFSET -19.402896 -40.984221 -3.007556
      CHANNELS 3 Zrotation Xrotation Yrotation
      JOINT AnkleRight
      {
        OFFSET 3.206134 -35.382684 -5.588313
        CHANNELS 3 Zrotation Xrotation Yrotation
        JOINT FootRight
        {
          OFFSET -4.190786 -7.372046 -0.289102
          CHANNELS 3 Zrotation Xrotation Yrotation
          End Site
          {
            OFFSET 0 0 0
          }
        }
      }
    }
  }
}
MOTION
Frames: 10
Frame Time: 0.033333
8.590957 77.525351 303.048106 -2.200314 0.474257 22.385713 0.064108 -0.009744 -22.446476 0.503998 0.057050 -0.048263 32.694097 -10.554296 -18.103295 0.000000 0.000000 0.000000 -2.145203 0.638551 -2.634513 -30.534673 -0.398147 -26.791630 -12.753335 -14.060273 3.576831 163.939884 40.640966 83.982955 0.000000 0.000000 0.000000 0.000000 0.000000 0.000000 6.142400 2.736063 -1.872639 -27.638145 -9.151781 5.780979 -25.102177 1.076545 -15.841693 23.206889 6.552999 6.589114 0.000000 0.000000 0.000000 0.000000 0.000000 0.000000 -11.298308 -22.609241 -26.101842 -0.244268 1.024239 3.788874 9.746325 35.246825 -14.454636 0.000000 0.000000 0.000000 10.979381 7.460617 -28.791857 6.396725 -17.988835 6.101612 -3.201319 14.541941 -3.197533 0.000000 0.000000 0.000000
6.274061 77.054503 307.097030 -3.119441 0.712239 20.738293 0.041906 0.011065 -20.819549 0.445669 -0.016013 -0.092513 35.074945 -8.830073 -18.598724 0.000000 0.000000 0.000000 -7.728513 0.936219 -8.896134 -35.014550 0.042700 -30.749926 -24.719100 -17.138717 2.065627 -160.862193 40.612195 67.036714 0.000000 0.000000 0.000000 0.000000 0.000000 0.000000 9.316933 3.507764 -2.706771 -30.492298 -10.290400 6.017286 -22.365877 1.900905 -15.462360 22.684043 4.765100 6.649080 0.000000 0.000000 0.000000 0.000000 0.000000 0.000000 -14.364463 -24.908439 -25.682534 2.519232 -3.284125 3.815048 11.786603 39.090366 -18.499798 0.000000 0.000000 0.000000 15.789609 9.637977 -29.678719 4.417437 -19.926316 8.555552 -1.076434 15.209107 -5.524358 0.000000 0.000000 0.000000
3.926256 76.700628 311.335334 -4.006080 0.813606 19.572995 0.095521 0.133992 -19.669163 0.411805 -0.058211 -0.132414 36.223202 -4.604445 -18.507383 0.000000 0.000000 0.000000 -13.625418 1.499424 -15.813112 -36.704776 -0.455775 -32.123194 -34.567394 -18.500205 2.786821 -136.795370 41.262298 58.824943 0.000000 0.000000 0.000000 0.000000 0.000000 0.000000 12.300968 3.997324 -3.479699 -32.495669 -10.565765 6.106291 -20.713239 2.130740 -15.079292 22.040131 3.186844 6.702072 0.000000 0.000000 0.000000 0.000000 0.000000 0.000000 -17.065928 -26.590275 -25.701052 6.752046 -5.005471 2.891819 9.112719 37.782724 -18.133616 0.000000 0.000000 0.000000 20.977384 11.316138 -31.009578 1.455494 -21.399440 10.470183 7.973044 23.897823 -16.092678 0.000000 0.000000 0.000000
2.006267 76.784353 315.561023 -4.406333 1.188388 20.222407 -0.080736 -0.013855 -20.326224 0.421543 0.016907 -0.150255 37.006441 -0.581238 -18.457537 0.000000 0.000000 0.000000 -19.615382 3.195419 -22.168080 -35.634148 -1.608237 -31.577397 -39.694189 -19.002548 6.069423 -123.177097 44.335263 53.803190 0.000000 0.000000 0.000000 0.000000 0.000000 0.000000 14.587258 4.055484 -4.098005 -33.550557 -9.843230 6.095796 -19.225514 1.469188 -14.565068 19.337179 2.523205 6.315795 0.000000 0.000000 0.000000 0.000000 0.000000 0.000000 -19.616130 -26.207441 -26.974478 11.986751 -5.443914 1.213794 2.092358 28.856539 -12.822314 0.000000 0.000000 0.000000 25.669363 11.596115 -33.662555 -2.201366 -22.558922 11.652070 17.519702 29.960355 -26.585215 0.000000 0.000000 0.000000
0.732961 77.534439 319.447280 -4.122417 1.964807 22.309414 -0.129304 -0.030449 -22.379784 0.253531 -0.232227 -0.164029 36.487208 1.753242 -17.923743 0.000000 0.000000 0.000000 -24.559454 4.822950 -27.082630 -33.265540 -2.827188 -29.733534 -44.275688 -18.271508 11.115560 -115.473673 50.080455 50.245617 0.000000 0.000000 0.000000 0.000000 0.000000 0.000000 16.515254 4.334602 -4.887704 -34.245389 -8.915174 5.759204 -17.032598 -0.032128 -13.662801 13.717071 2.885535 5.198223 0.000000 0.000000 0.000000 0.000000 0.000000 0.000000 -21.473110 -23.909609 -28.843666 17.930988 -3.720940 -0.999001 -6.465786 0.653042 2.795922 0.000000 0.000000 0.000000 28.623517 10.005002 -36.476706 -6.105726 -22.504843 11.786723 24.762681 33.113603 -34.423451 0.000000 0.000000 0.000000
0.108089 78.418777 322.973682 -3.119013 3.163339 22.537086 -0.231315 -0.061262 -22.561822 0.066817 -0.500558 -0.152859 34.935039 2.290145 -17.032202 0.000000 0.000000 0.000000 -28.110360 5.627494 -30.280826 -33.061378 -2.805873 -29.502468 -36.764791 -18.163025 17.787552 -121.885637 52.416459 48.762548 0.000000 0.000000 0.000000 0.000000 0.000000 0.000000 17.892481 4.106484 -5.634651 -34.758160 -7.591161 5.368742 -14.922404 -2.369822 -12.564987 5.787859 7.292252 3.165230 0.000000 0.000000 0.000000 0.000000 0.000000 0.000000 -21.648394 -22.408003 -28.497533 24.113217 2.507284 -4.059593 -10.081242 -21.119682 16.472381 0.000000 0.000000 0.000000 29.126937 9.256782 -37.125651 -8.994626 -22.107413 11.717793 27.941999 34.934917 -38.824395 0.000000 0.000000 0.000000
0.124623 79.305134 325.680835 -1.816513 4.250376 22.849441 0.344833 0.430578 -22.809496 0.118657 -0.404253 -0.076181 33.255531 0.953132 -16.186006 0.000000 0.000000 0.000000 -30.368668 4.633265 -31.923191 -33.568850 -1.991745 -29.372758 -35.750095 -18.915118 16.869946 -120.065039 52.886952 51.733347 0.000000 0.000000 0.000000 0.000000 0.000000 0.000000 17.997611 2.805430 -6.026765 -34.638088 -5.794989 4.814791 -13.367616 -7.349520 -11.468715 -2.189934 13.127333 1.800053 0.000000 0.000000 0.000000 0.000000 0.000000 0.000000 -20.783109 -21.222760 -28.099187 26.547038 4.557709 -5.288670 -9.146956 -35.035790 27.801811 0.000000 0.000000 0.000000 28.059736 8.446855 -37.320043 -10.750851 -21.317016 11.392609 26.951881 36.156121 -39.729340 0.000000 0.000000 0.000000
-0.052373 80.184394 327.660590 -0.457598 5.808904 24.237138 0.643068 0.526095 -24.176093 0.161091 -0.349068 -0.004698 30.828125 -1.253068 -14.963205 0.000000 0.000000 0.000000 -29.671800 1.064384 -31.319248 -34.704491 -1.455107 -29.145106 -39.041960 -18.119725 15.769809 -118.722177 53.264816 50.780852 0.000000 0.000000 0.000000 0.000000 0.000000 0.000000 17.942266 1.941039 -6.413987 -33.691442 -4.007073 3.916927 -12.065004 -12.759777 -9.831564 -11.916918 20.044853 1.098748 0.000000 0.000000 0.000000 0.000000 0.000000 0.000000 -20.127664 -19.298858 -28.743589 27.313445 4.986843 -5.487903 -8.108584 -42.396564 33.502224 0.000000 0.000000 0.000000 26.669241 6.365742 -37.980958 -12.521669 -20.387900 10.874007 22.068396 37.323808 -38.038152 0.000000 0.000000 0.000000
-0.228224 81.122473 329.560556 1.121935 7.546551 26.306381 0.780208 0.574870 -26.282533 0.117085 -0.266259 0.056177 28.376623 -4.700695 -13.737918 0.000000 0.000000 0.000000 -29.295166 -1.490633 -30.208902 -38.153949 1.281430 -30.830754 -36.769538 -18.804764 14.452270 -118.841157 52.301161 50.225327 0.000000 0.000000 0.000000 0.000000 0.000000 0.000000 18.127165 0.931734 -6.793588 -33.083772 -1.455556 2.799053 -10.902994 -17.955384 -7.862293 -17.990264 24.499578 0.784145 0.000000 0.000000 0.000000 0.000000 0.000000 0.000000 -21.894347 -18.378943 -30.846192 27.186021 5.790544 -5.556143 -10.128659 -42.221077 29.922798 0.000000 0.000000 0.000000 25.072332 4.049226 -39.413061 -14.180741 -19.463599 10.459715 13.813015 36.450715 -33.022005 0.000000 0.000000 0.000000
-0.353777 81.820541 331.134261 2.603174 8.922457 29.794443 0.859240 0.589166 -29.852349 0.098977 -0.075205 0.108572 25.339217 -6.915851 -12.422401 0.000000 0.000000 0.000000 -31.518174 -1.440466 -31.298679 -37.173019 0.359008 -32.076407 -37.100400 -18.843743 15.678514 -118.004823 52.935058 50.053793 0.000000 0.000000 0.000000 0.000000 0.000000 0.000000 18.500585 0.252831 -7.239346 -33.842870 -0.619417 2.133236 -6.586670 -21.203904 -4.942869 -24.528116 30.975647 0.179332 0.000000 0.000000 0.000000 0.000000 0.000000 0.000000 -24.017198 -16.651684 -34.275765 24.452056 4.637984 -4.351117 -13.503396 -30.189876 17.693716 0.000000 0.000000 0.000000 23.629655 1.658429 -42.428921 -15.420717 -18.781958 10.183434 3.789835 32.905985 -26.037240 0.000000 0.000000 0.000000
